<?xml version="1.0" encoding="UTF-8" standalone="no"?>
<svg
   xmlns:dc="http://purl.org/dc/elements/1.1/"
   xmlns:cc="http://creativecommons.org/ns#"
   xmlns:rdf="http://www.w3.org/1999/02/22-rdf-syntax-ns#"
   xmlns:svg="http://www.w3.org/2000/svg"
   xmlns="http://www.w3.org/2000/svg"
   xmlns:sodipodi="http://sodipodi.sourceforge.net/DTD/sodipodi-0.dtd"
   xmlns:inkscape="http://www.inkscape.org/namespaces/inkscape"
   width="43.025547mm"
   height="33.072487mm"
   viewBox="0 0 43.025546 33.072486"
   version="1.1"
   id="svg8"
   inkscape:version="1.0.2 (e86c870879, 2021-01-15, custom)"
   sodipodi:docname="example.svg"
   inkscape:export-filename="C:\MyWork\MySoftwares\repo_template_python\doc\source\img\example.png"
   inkscape:export-xdpi="499"
   inkscape:export-ydpi="499">
  <defs
     id="defs2">
    <inkscape:perspective
       sodipodi:type="inkscape:persp3d"
       inkscape:vp_x="-4.0673153 : 28.809488 : 1"
       inkscape:vp_y="0 : 999.99999 : 0"
       inkscape:vp_z="48.76233 : 28.809488 : 1"
       inkscape:persp3d-origin="22.347508 : 16.736328 : 1"
       id="perspective985" />
    <marker
       inkscape:stockid="Arrow2Mstart"
       orient="auto"
       refY="0"
       refX="0"
       id="Arrow2Mstart"
       style="overflow:visible"
       inkscape:isstock="true">
      <path
         id="path855"
         style="fill:#000000;fill-opacity:1;fill-rule:evenodd;stroke:#000000;stroke-width:0.625;stroke-linejoin:round;stroke-opacity:1"
         d="M 8.7185878,4.0337352 -2.2072895,0.01601326 8.7185884,-4.0017078 c -1.7454984,2.3720609 -1.7354408,5.6174519 -6e-7,8.035443 z"
         transform="scale(0.6)"
         inkscape:connector-curvature="0" />
    </marker>
    <marker
       inkscape:isstock="true"
       style="overflow:visible"
       id="marker1633"
       refX="0"
       refY="0"
       orient="auto"
       inkscape:stockid="TriangleOutL">
      <path
         transform="scale(0.8)"
         style="fill:#000000;fill-opacity:1;fill-rule:evenodd;stroke:#000000;stroke-width:1pt;stroke-opacity:1"
         d="M 5.77,0 -2.88,5 V -5 Z"
         id="path1631"
         inkscape:connector-curvature="0" />
    </marker>
    <marker
       inkscape:stockid="TriangleInL"
       orient="auto"
       refY="0"
       refX="0"
       id="TriangleInL"
       style="overflow:visible"
       inkscape:isstock="true">
      <path
         id="path964"
         d="M 5.77,0 -2.88,5 V -5 Z"
         style="fill:#000000;fill-opacity:1;fill-rule:evenodd;stroke:#000000;stroke-width:1pt;stroke-opacity:1"
         transform="scale(-0.8)"
         inkscape:connector-curvature="0" />
    </marker>
    <marker
       inkscape:stockid="Arrow1Lend"
       orient="auto"
       refY="0"
       refX="0"
       id="Arrow1Lend"
       style="overflow:visible"
       inkscape:isstock="true">
      <path
         id="path834"
         d="M 0,0 5,-5 -12.5,0 5,5 Z"
         style="fill:#000000;fill-opacity:1;fill-rule:evenodd;stroke:#000000;stroke-width:1pt;stroke-opacity:1"
         transform="matrix(-0.8,0,0,-0.8,-10,0)"
         inkscape:connector-curvature="0" />
    </marker>
    <marker
       inkscape:stockid="Arrow1Lstart"
       orient="auto"
       refY="0"
       refX="0"
       id="Arrow1Lstart"
       style="overflow:visible"
       inkscape:isstock="true">
      <path
         id="path831"
         d="M 0,0 5,-5 -12.5,0 5,5 Z"
         style="fill:#000000;fill-opacity:1;fill-rule:evenodd;stroke:#000000;stroke-width:1pt;stroke-opacity:1"
         transform="matrix(0.8,0,0,0.8,10,0)"
         inkscape:connector-curvature="0" />
    </marker>
    <clipPath
       id="clipPath4508"
       clipPathUnits="userSpaceOnUse">
      <path
         inkscape:connector-curvature="0"
         id="path4506"
         d="m 70.2136,115.735 h 7.2485 v 7.42 h -7.2485 z" />
    </clipPath>
    <clipPath
       id="clipPath7888"
       clipPathUnits="userSpaceOnUse">
      <path
         inkscape:connector-curvature="0"
         id="path7886"
         d="m 70.2136,115.735 h 7.2485 v 7.42 h -7.2485 z" />
    </clipPath>
    <clipPath
       id="clipPath11232"
       clipPathUnits="userSpaceOnUse">
      <path
         inkscape:connector-curvature="0"
         id="path11230"
         d="m 69.827,92.0301 h 8.5912 v 9.1759 H 69.827 Z" />
    </clipPath>
    <clipPath
       id="clipPath14576"
       clipPathUnits="userSpaceOnUse">
      <path
         inkscape:connector-curvature="0"
         id="path14574"
         d="m 71.1456,103.911 h 6.2394 v 7.259 h -6.2394 z" />
    </clipPath>
    <g
       id="id-3f11df32-1340-4797-96e1-a099f3a38d29-5">
      <symbol
         overflow="visible"
         id="id-cdc34c5f-b771-4d99-91a4-2cf97b1639f1-2">
        <path
           style="stroke:none;stroke-width:0"
           d=""
           id="id-12d0976e-9ff3-4e29-a47c-057f31521210-8" />
      </symbol>
      <symbol
         overflow="visible"
         id="id-4acee79f-5243-48a7-b116-2463182a7364-2">
        <path
           style="stroke:none;stroke-width:0"
           d="m 1.328125,-0.828125 c 0.53125,-0.578125 0.828125,-0.828125 1.1875,-1.140625 0,0 0.609375,-0.53125 0.96875,-0.890625 C 4.4375,-3.78125 4.65625,-4.265625 4.65625,-4.3125 c 0,-0.09375 -0.09375,-0.09375 -0.109375,-0.09375 -0.078125,0 -0.09375,0.015625 -0.15625,0.109375 -0.296875,0.484375 -0.5,0.640625 -0.734375,0.640625 -0.25,0 -0.359375,-0.15625 -0.515625,-0.328125 -0.1875,-0.21875 -0.359375,-0.421875 -0.6875,-0.421875 -0.75,0 -1.203125,0.921875 -1.203125,1.140625 0,0.046875 0.03125,0.109375 0.109375,0.109375 0.09375,0 0.109375,-0.046875 0.140625,-0.109375 0.1875,-0.46875 0.765625,-0.46875 0.84375,-0.46875 0.203125,0 0.390625,0.0625 0.625,0.140625 0.40625,0.15625 0.515625,0.15625 0.765625,0.15625 -0.359375,0.421875 -1.1875,1.140625 -1.375,1.296875 l -0.90625,0.84375 C 0.78125,-0.625 0.421875,-0.0625 0.421875,0.015625 c 0,0.09375 0.109375,0.09375 0.125,0.09375 0.078125,0 0.09375,-0.015625 0.15625,-0.125 0.234375,-0.359375 0.53125,-0.625 0.859375,-0.625 0.21875,0 0.328125,0.09375 0.578125,0.375 0.15625,0.21875 0.34375,0.375 0.625,0.375 1,0 1.578125,-1.265625 1.578125,-1.53125 0,-0.046875 -0.046875,-0.109375 -0.125,-0.109375 -0.09375,0 -0.109375,0.0625 -0.140625,0.140625 C 3.84375,-0.75 3.203125,-0.5625 2.875,-0.5625 c -0.1875,0 -0.375,-0.0625 -0.578125,-0.125 -0.34375,-0.125 -0.5,-0.171875 -0.703125,-0.171875 -0.015625,0 -0.171875,0 -0.265625,0.03125 z m 0,0"
           id="id-1543e2b2-954b-44e4-904e-63b73fa66edf-7" />
      </symbol>
    </g>
    <g
       id="id-3f11df32-1340-4797-96e1-a099f3a38d29-52">
      <symbol
         overflow="visible"
         id="id-cdc34c5f-b771-4d99-91a4-2cf97b1639f1-8">
        <path
           style="stroke:none;stroke-width:0"
           d=""
           id="id-12d0976e-9ff3-4e29-a47c-057f31521210-4" />
      </symbol>
      <symbol
         overflow="visible"
         id="id-4acee79f-5243-48a7-b116-2463182a7364-3">
        <path
           style="stroke:none;stroke-width:0"
           d="m 1.328125,-0.828125 c 0.53125,-0.578125 0.828125,-0.828125 1.1875,-1.140625 0,0 0.609375,-0.53125 0.96875,-0.890625 C 4.4375,-3.78125 4.65625,-4.265625 4.65625,-4.3125 c 0,-0.09375 -0.09375,-0.09375 -0.109375,-0.09375 -0.078125,0 -0.09375,0.015625 -0.15625,0.109375 -0.296875,0.484375 -0.5,0.640625 -0.734375,0.640625 -0.25,0 -0.359375,-0.15625 -0.515625,-0.328125 -0.1875,-0.21875 -0.359375,-0.421875 -0.6875,-0.421875 -0.75,0 -1.203125,0.921875 -1.203125,1.140625 0,0.046875 0.03125,0.109375 0.109375,0.109375 0.09375,0 0.109375,-0.046875 0.140625,-0.109375 0.1875,-0.46875 0.765625,-0.46875 0.84375,-0.46875 0.203125,0 0.390625,0.0625 0.625,0.140625 0.40625,0.15625 0.515625,0.15625 0.765625,0.15625 -0.359375,0.421875 -1.1875,1.140625 -1.375,1.296875 l -0.90625,0.84375 C 0.78125,-0.625 0.421875,-0.0625 0.421875,0.015625 c 0,0.09375 0.109375,0.09375 0.125,0.09375 0.078125,0 0.09375,-0.015625 0.15625,-0.125 0.234375,-0.359375 0.53125,-0.625 0.859375,-0.625 0.21875,0 0.328125,0.09375 0.578125,0.375 0.15625,0.21875 0.34375,0.375 0.625,0.375 1,0 1.578125,-1.265625 1.578125,-1.53125 0,-0.046875 -0.046875,-0.109375 -0.125,-0.109375 -0.09375,0 -0.109375,0.0625 -0.140625,0.140625 C 3.84375,-0.75 3.203125,-0.5625 2.875,-0.5625 c -0.1875,0 -0.375,-0.0625 -0.578125,-0.125 -0.34375,-0.125 -0.5,-0.171875 -0.703125,-0.171875 -0.015625,0 -0.171875,0 -0.265625,0.03125 z m 0,0"
           id="id-1543e2b2-954b-44e4-904e-63b73fa66edf-9" />
      </symbol>
    </g>
  </defs>
  <sodipodi:namedview
     id="base"
     pagecolor="#ffffff"
     bordercolor="#666666"
     borderopacity="1.0"
     inkscape:pageopacity="0.0"
     inkscape:pageshadow="2"
     inkscape:zoom="4.8162208"
     inkscape:cx="77.344016"
     inkscape:cy="64.967676"
     inkscape:document-units="mm"
     inkscape:current-layer="layer1"
     showgrid="false"
     inkscape:snap-smooth-nodes="true"
     inkscape:snap-object-midpoints="true"
     inkscape:window-width="2560"
     inkscape:window-height="1377"
     inkscape:window-x="1912"
     inkscape:window-y="-8"
     inkscape:window-maximized="1"
     fit-margin-top="1"
     fit-margin-left="1"
     fit-margin-right="1"
     fit-margin-bottom="1"
     inkscape:document-rotation="0" />
  <metadata
     id="metadata5">
    <rdf:RDF>
      <cc:Work
         rdf:about="">
        <dc:format>image/svg+xml</dc:format>
        <dc:type
           rdf:resource="http://purl.org/dc/dcmitype/StillImage" />
        <dc:title></dc:title>
      </cc:Work>
    </rdf:RDF>
  </metadata>
  <g
     inkscape:label="Layer 1"
     inkscape:groupmode="layer"
     id="layer1"
     transform="translate(-62.489688,-92.354813)">
    <text
       xml:space="preserve"
       style="font-style:normal;font-variant:normal;font-weight:normal;font-stretch:normal;font-size:4.88311px;line-height:1.25;font-family:sans-serif;-inkscape-font-specification:'sans-serif, Normal';font-variant-ligatures:normal;font-variant-caps:normal;font-variant-numeric:normal;text-align:start;letter-spacing:0px;word-spacing:0px;writing-mode:lr-tb;text-anchor:start;fill:#000000;fill-opacity:1;stroke:none;stroke-width:0.264583"
       x="107.131"
       y="147.28461"
       id="text1741-2"
       transform="scale(1.0064481,0.99359325)" />
    <ellipse
       style="fill:none;fill-opacity:0.392157;stroke:#000000;stroke-width:0.499999;stroke-linejoin:round"
       id="path983"
       cx="84.002464"
       cy="103.60481"
       rx="20"
       ry="10" />
    <g
       sodipodi:type="inkscape:box3d"
       id="g987"
       style="fill:none;fill-opacity:0.392157;stroke:#000000;stroke-width:1.88976;stroke-linejoin:round"
       inkscape:perspectiveID="#perspective985"
       inkscape:corner0="0.47825298 : 0.011866298 : 0 : 1"
       inkscape:corner7="-5.3337401e-06 : -0.0012741866 : 0.25 : 1">
      <path
         sodipodi:type="inkscape:box3dside"
         id="path999"
         style="fill:#e9e9ff;fill-rule:evenodd;stroke:none;stroke-linejoin:round"
         inkscape:box3dsidetype="11"
         d="m 81.348551,96.737506 8.771745,0.0458 v 10.512428 l -8.771745,-2.95489 z"
         points="90.120296,96.783302 90.120296,107.29573 81.348551,104.34084 81.348551,96.737506 " />
      <path
         sodipodi:type="inkscape:box3dside"
         id="path989"
         style="fill:#353564;fill-rule:evenodd;stroke:none;stroke-linejoin:round"
         inkscape:box3dsidetype="6"
         d="m 76.29132,96.757748 v 8.889202 l 5.057231,-1.30611 v -7.603334 z"
         points="76.29132,105.64695 81.348551,104.34084 81.348551,96.737506 76.29132,96.757748 " />
      <path
         sodipodi:type="inkscape:box3dside"
         id="path997"
         style="fill:#afafde;fill-rule:evenodd;stroke:none;stroke-linejoin:round"
         inkscape:box3dsidetype="13"
         d="m 76.29132,105.64695 8.546018,4.31828 5.282958,-2.6695 -8.771745,-2.95489 z"
         points="84.837338,109.96523 90.120296,107.29573 81.348551,104.34084 76.29132,105.64695 " />
      <path
         sodipodi:type="inkscape:box3dside"
         id="path991"
         style="fill:#4d4d9f;fill-rule:evenodd;stroke:none;stroke-linejoin:round"
         inkscape:box3dsidetype="5"
         d="m 76.29132,96.757748 8.546018,0.06693 5.282958,-0.04137 -8.771745,-0.0458 z"
         points="84.837338,96.824674 90.120296,96.783302 81.348551,96.737506 76.29132,96.757748 " />
      <path
         sodipodi:type="inkscape:box3dside"
         id="path995"
         style="fill:#d7d7ff;fill-rule:evenodd;stroke:none;stroke-linejoin:round"
         inkscape:box3dsidetype="14"
         d="m 84.837338,96.824674 v 13.140556 l 5.282958,-2.6695 V 96.783302 Z"
         points="84.837338,109.96523 90.120296,107.29573 90.120296,96.783302 84.837338,96.824674 " />
      <path
         sodipodi:type="inkscape:box3dside"
         id="path993"
         style="fill:#8686bf;fill-rule:evenodd;stroke:none;stroke-linejoin:round"
         inkscape:box3dsidetype="3"
         d="m 76.29132,96.757748 8.546018,0.06693 v 13.140556 l -8.546018,-4.31828 z"
         points="84.837338,96.824674 84.837338,109.96523 76.29132,105.64695 76.29132,96.757748 " />
    </g>
    <text
       xml:space="preserve"
       style="font-style:normal;font-variant:normal;font-weight:normal;font-stretch:normal;font-size:9.87777px;line-height:1.25;font-family:sans-serif;-inkscape-font-specification:'sans-serif, Normal';font-variant-ligatures:normal;font-variant-caps:normal;font-variant-numeric:normal;text-align:start;letter-spacing:0px;word-spacing:0px;writing-mode:lr-tb;text-anchor:start;fill:#000000;fill-opacity:1;stroke:none;stroke-width:0.264583"
       x="83.987991"
       y="122.44017"
       id="text1003"><tspan
         sodipodi:role="line"
         id="tspan1001"
         x="83.987991"
         y="122.44017"
         style="text-align:center;text-anchor:middle;stroke-width:0.264583">example</tspan></text>
  </g>
</svg>
